<svg xmlns="http://www.w3.org/2000/svg" width="410" height="404" viewBox="0 0 410 404" fill="none">
  <path d="M399.641 59.5246L215.643 388.545C211.143 396.545 199.858 396.571 195.327 388.595L10.3664 59.5563C5.24487 50.6437 12.941 39.6875 23.5135 41.5659L205.223 73.2785C206.398 73.4896 207.601 73.4886 208.776 73.2757L386.581 41.5993C397.129 39.6949 404.86 50.588 399.775 59.5182L399.641 59.5246Z" fill="url(#paint0_linear)"/>
  <path d="M292.965 1.5744L156.801 28.2552C155.563 28.5003 154.463 29.1824 153.73 30.1806L65.8563 150.483C64.2714 152.683 65.522 155.74 68.1842 156.222L104.209 162.664C105.026 162.812 105.864 162.66 106.58 162.233L199.171 106.364C201.299 105.07 203.975 106.982 203.492 109.384L183.979 208.681C183.446 211.35 185.835 213.634 188.458 212.886L219.54 204.072C220.86 203.695 221.914 202.684 222.312 201.347L260.72 71.9317C261.548 69.1462 264.953 68.3228 266.85 70.4466L275.745 80.3818C276.943 81.7241 279.073 81.7483 280.305 80.4302L308.697 49.745C310.759 47.5273 309.518 44.0381 306.593 43.4558L294.583 41.072C291.6 40.4799 290.327 36.788 292.431 34.6862L314.311 12.8978C316.701 10.52 314.521 6.58383 311.302 7.22038Z" fill="url(#paint1_linear)"/>
  <defs>
    <linearGradient id="paint0_linear" x1="6.00017" y1="32.9999" x2="235" y2="344" gradientUnits="userSpaceOnUse">
      <stop stop-color="#41D1FF"/>
      <stop offset="1" stop-color="#BD34FE"/>
    </linearGradient>
    <linearGradient id="paint1_linear" x1="194.651" y1="8.81818" x2="236.076" y2="292.989" gradientUnits="userSpaceOnUse">
      <stop stop-color="#FFEA83"/>
      <stop offset="0.0833333" stop-color="#FFDD35"/>
      <stop offset="1" stop-color="#FFA800"/>
    </linearGradient>
  </defs>
</svg>
